<svg xmlns="http://www.w3.org/2000/svg" width="375" viewBox="0 0 375 375" height="375" version="1.0"><defs><clipPath id="a"><path d="M 63.59375 137 L 155 137 L 155 225 L 63.59375 225 Z M 63.59375 137"/></clipPath><clipPath id="b"><path d="M 182 164 L 254 164 L 254 311.09375 L 182 311.09375 Z M 182 164"/></clipPath><clipPath id="c"><path d="M 120 164 L 188 164 L 188 311.09375 L 120 311.09375 Z M 120 164"/></clipPath></defs><path fill="#B66736" d="M 187.359375 361.335938 C 140.910156 361.335938 97.175781 343.257812 64.355469 310.367188 C 31.464844 277.546875 13.386719 233.808594 13.386719 187.359375 C 13.386719 140.910156 31.464844 97.175781 64.355469 64.355469 C 97.175781 31.464844 140.910156 13.386719 187.359375 13.386719 C 233.808594 13.386719 277.546875 31.464844 310.367188 64.355469 C 343.257812 97.246094 361.335938 140.910156 361.335938 187.359375 C 361.335938 233.808594 343.257812 277.546875 310.367188 310.367188 C 277.546875 343.257812 233.808594 361.335938 187.359375 361.335938 Z M 187.359375 23.816406 C 143.695312 23.816406 102.597656 40.851562 71.726562 71.726562 C 40.851562 102.597656 23.816406 143.691406 23.816406 187.359375 C 23.816406 231.027344 40.851562 272.121094 71.726562 302.996094 C 102.597656 333.871094 143.695312 350.90625 187.359375 350.90625 C 231.027344 350.90625 272.121094 333.871094 302.996094 302.996094 C 333.871094 272.121094 350.90625 231.027344 350.90625 187.359375 C 350.90625 143.691406 333.871094 102.597656 302.996094 71.726562 C 272.121094 40.851562 231.027344 23.816406 187.359375 23.816406 Z M 187.359375 23.816406"/><path fill="#EDD7B0" d="M 167.625 166.433594 L 149.902344 77.339844 C 148.246094 69 140.140625 63.585938 131.804688 65.242188 C 123.464844 66.902344 118.050781 75.007812 119.710938 83.34375 L 138.269531 176.644531 L 160.363281 182.75 Z M 167.625 166.433594"/><path fill="#E1BB78" d="M 207.066406 166.433594 L 224.785156 77.339844 C 226.445312 69 234.546875 63.585938 242.886719 65.242188 C 251.226562 66.902344 256.640625 75.007812 254.980469 83.34375 L 236.421875 176.644531 L 214.324219 182.75 Z M 207.066406 166.433594"/><g clip-path="url(#a)"><path fill="#9B5E34" d="M 127.746094 224.738281 C 101.371094 223.230469 81.882812 208.953125 71.390625 183.457031 C 63.78125 164.964844 63.691406 147.101562 63.691406 146.347656 L 63.691406 140.714844 L 69.15625 139.328125 C 69.804688 139.164062 85.234375 135.335938 103.09375 138.78125 C 120.054688 142.054688 142.382812 152.574219 152.417969 184.105469 L 152.695312 184.980469 L 154.445312 215.996094 L 129.1875 224.820312 Z M 127.746094 224.738281"/></g><path fill="#EDD7B0" d="M 138.332031 187.648438 C 131.964844 168.445312 119.339844 156.824219 100.800781 153.097656 C 92.039062 151.339844 83.820312 151.757812 78.566406 152.390625 C 79.175781 158.398438 80.746094 168.109375 84.789062 177.941406 C 92.941406 197.75 107.195312 208.585938 127.167969 210.175781 L 139.363281 205.914062 Z M 138.332031 187.648438"/><path fill="#5B362A" d="M 245.503906 224.820312 L 220.246094 215.996094 L 221.992188 184.980469 L 222.273438 184.105469 C 232.308594 152.574219 254.636719 142.054688 271.597656 138.78125 C 289.457031 135.335938 304.886719 139.164062 305.535156 139.328125 L 311 140.714844 L 311 146.347656 C 311 147.101562 310.910156 164.964844 303.300781 183.457031 C 292.808594 208.953125 273.320312 223.230469 246.945312 224.738281 Z M 245.503906 224.820312"/><path fill="#E1BB78" d="M 235.328125 205.914062 L 247.523438 210.175781 C 267.496094 208.585938 281.75 197.75 289.902344 177.941406 C 293.945312 168.109375 295.515625 158.398438 296.125 152.390625 C 290.871094 151.757812 282.652344 151.339844 273.890625 153.097656 C 255.351562 156.824219 242.726562 168.445312 236.359375 187.648438 Z M 235.328125 205.914062"/><g clip-path="url(#b)"><path fill="#9B5E34" d="M 228.816406 172.625 C 248.828125 180.578125 258.824219 203.0625 251.316406 223.246094 L 246.5 236.199219 L 239.144531 242.988281 L 241.441406 249.796875 L 229.554688 281.761719 C 222.996094 299.398438 206.164062 311.097656 187.347656 311.097656 L 182.515625 235.105469 L 187.347656 164.6875 C 201.421875 164.6875 215.5 167.332031 228.816406 172.625 Z M 228.816406 172.625"/></g><path fill="#2D2D2D" d="M 225.84375 227.359375 L 246.5 236.199219 L 241.441406 249.796875 L 220.144531 240.679688 Z M 225.84375 227.359375"/><g clip-path="url(#c)"><path fill="#C9885B" d="M 145.875 172.625 C 125.863281 180.578125 115.867188 203.0625 123.375 223.246094 L 128.191406 236.199219 L 135.546875 242.988281 L 133.25 249.796875 L 145.136719 281.761719 C 151.695312 299.398438 168.527344 311.097656 187.34375 311.097656 L 187.34375 164.6875 C 173.269531 164.6875 159.191406 167.332031 145.875 172.625 Z M 145.875 172.625"/></g><path fill="#4B5055" d="M 148.847656 227.359375 L 128.191406 236.199219 L 133.25 249.796875 L 154.546875 240.679688 Z M 148.847656 227.359375"/><path fill="#2D2D2D" d="M 203.507812 266.96875 L 187.34375 276.6875 L 182.515625 283.628906 L 187.34375 293.597656 L 210.972656 279.386719 Z M 203.507812 266.96875"/><path fill="#4B5055" d="M 171.183594 266.96875 L 163.71875 279.386719 L 187.34375 293.597656 L 187.34375 276.6875 Z M 171.183594 266.96875"/></svg>