<svg xmlns="http://www.w3.org/2000/svg" width="375" viewBox="0 0 375 375" height="375" version="1.0"><defs><clipPath id="a"><path d="M 35.429688 124 L 148 124 L 148 232 L 35.429688 232 Z M 35.429688 124"/></clipPath><clipPath id="b"><path d="M 228 124 L 339.929688 124 L 339.929688 232 L 228 232 Z M 228 124"/></clipPath><clipPath id="c"><path d="M 181 157 L 270 157 L 270 337.863281 L 181 337.863281 Z M 181 157"/></clipPath><clipPath id="d"><path d="M 105 157 L 188 157 L 188 337.863281 L 105 337.863281 Z M 105 157"/></clipPath></defs><path fill="#FFF" d="M 187.5 8.625 C 88.707031 8.625 8.625 88.707031 8.625 187.5 C 8.625 286.289062 88.707031 366.375 187.5 366.375 C 286.289062 366.375 366.375 286.289062 366.375 187.5 C 366.375 88.707031 286.289062 8.625 187.5 8.625"/><path fill="#B66736" d="M 187.351562 374.699219 C 137.332031 374.699219 90.230469 355.230469 54.886719 319.8125 C 19.46875 284.46875 0 237.371094 0 187.351562 C 0 137.332031 19.46875 90.230469 54.886719 54.886719 C 90.230469 19.46875 137.332031 0 187.351562 0 C 237.371094 0 284.46875 19.46875 319.8125 54.886719 C 355.230469 90.304688 374.699219 137.332031 374.699219 187.351562 C 374.699219 237.371094 355.230469 284.46875 319.8125 319.8125 C 284.46875 355.230469 237.371094 374.699219 187.351562 374.699219 Z M 187.351562 11.230469 C 140.324219 11.230469 96.070312 29.578125 62.824219 62.824219 C 29.578125 96.070312 11.230469 140.324219 11.230469 187.351562 C 11.230469 234.375 29.578125 278.628906 62.824219 311.875 C 96.070312 345.121094 140.324219 363.46875 187.351562 363.46875 C 234.375 363.46875 278.628906 345.121094 311.875 311.875 C 345.121094 278.628906 363.46875 234.375 363.46875 187.351562 C 363.46875 140.324219 345.121094 96.070312 311.875 62.824219 C 278.628906 29.578125 234.375 11.230469 187.351562 11.230469 Z M 187.351562 11.230469"/><path fill="#EDD7B0" d="M 163.421875 159.882812 L 141.617188 50.269531 C 139.574219 40.011719 129.605469 33.351562 119.347656 35.390625 C 109.089844 37.429688 102.429688 47.398438 104.46875 57.660156 L 127.300781 172.445312 L 154.488281 179.960938 Z M 163.421875 159.882812"/><path fill="#E1BB78" d="M 211.941406 159.882812 L 233.746094 50.269531 C 235.785156 40.011719 245.753906 33.351562 256.011719 35.390625 C 266.273438 37.429688 272.933594 47.398438 270.890625 57.660156 L 248.058594 172.445312 L 220.875 179.960938 Z M 211.941406 159.882812"/><g clip-path="url(#a)"><path fill="#9B5E34" d="M 114.351562 231.617188 C 81.90625 229.761719 57.929688 212.199219 45.019531 180.828125 C 35.65625 158.078125 35.550781 136.097656 35.550781 135.175781 L 35.550781 128.242188 L 42.269531 126.535156 C 43.070312 126.332031 62.054688 121.625 84.027344 125.863281 C 104.894531 129.890625 132.359375 142.832031 144.710938 181.628906 L 145.054688 182.703125 L 147.203125 220.859375 L 116.128906 231.71875 Z M 114.351562 231.617188"/></g><path fill="#EDD7B0" d="M 127.382812 185.988281 C 119.546875 162.359375 104.015625 148.058594 81.203125 143.476562 C 70.425781 141.3125 60.316406 141.824219 53.851562 142.605469 C 54.597656 149.996094 56.527344 161.949219 61.507812 174.042969 C 71.535156 198.410156 89.070312 211.746094 113.644531 213.699219 L 128.648438 208.457031 Z M 127.382812 185.988281"/><g clip-path="url(#b)"><path fill="#5B362A" d="M 259.234375 231.71875 L 228.15625 220.859375 L 230.308594 182.703125 L 230.652344 181.628906 C 243 142.832031 270.46875 129.890625 291.335938 125.863281 C 313.308594 121.625 332.292969 126.332031 333.089844 126.535156 L 339.8125 128.242188 L 339.8125 135.175781 C 339.8125 136.097656 339.703125 158.078125 330.339844 180.828125 C 317.429688 212.199219 293.457031 229.761719 261.007812 231.617188 Z M 259.234375 231.71875"/></g><path fill="#E1BB78" d="M 246.714844 208.457031 L 261.714844 213.699219 C 286.292969 211.746094 303.824219 198.410156 313.855469 174.042969 C 318.832031 161.945312 320.761719 149.996094 321.511719 142.605469 C 315.046875 141.824219 304.9375 141.3125 294.160156 143.476562 C 271.347656 148.058594 255.816406 162.359375 247.980469 185.988281 Z M 246.714844 208.457031"/><g clip-path="url(#c)"><path fill="#9B5E34" d="M 238.699219 167.5 C 263.324219 177.285156 275.621094 204.945312 266.382812 229.78125 L 260.457031 245.714844 L 251.410156 254.066406 L 254.238281 262.445312 L 239.609375 301.773438 C 231.539062 323.472656 210.832031 337.867188 187.679688 337.867188 L 181.738281 244.375 L 187.679688 157.734375 C 205 157.734375 222.316406 160.992188 238.699219 167.5 Z M 238.699219 167.5"/></g><path fill="#2D2D2D" d="M 235.046875 234.839844 L 260.457031 245.714844 L 254.234375 262.445312 L 228.03125 251.230469 Z M 235.046875 234.839844"/><g clip-path="url(#d)"><path fill="#C9885B" d="M 136.660156 167.5 C 112.039062 177.285156 99.742188 204.945312 108.976562 229.78125 L 114.902344 245.714844 L 123.953125 254.066406 L 121.125 262.445312 L 135.753906 301.773438 C 143.820312 323.472656 164.53125 337.867188 187.679688 337.867188 L 187.679688 157.734375 C 170.363281 157.734375 153.042969 160.992188 136.660156 167.5 Z M 136.660156 167.5"/></g><path fill="#4B5055" d="M 140.316406 234.839844 L 114.902344 245.714844 L 121.125 262.445312 L 147.328125 251.230469 Z M 140.316406 234.839844"/><path fill="#2D2D2D" d="M 207.5625 283.574219 L 187.679688 295.53125 L 181.738281 304.070312 L 187.679688 316.335938 L 216.75 298.851562 Z M 207.5625 283.574219"/><path fill="#4B5055" d="M 167.796875 283.574219 L 158.609375 298.851562 L 187.679688 316.335938 L 187.679688 295.53125 Z M 167.796875 283.574219"/></svg>