<svg xmlns="http://www.w3.org/2000/svg" width="375" viewBox="0 0 375 375" height="375" version="1.0"><defs><clipPath id="a"><path d="M 81.625 144 L 160 144 L 160 220 L 81.625 220 Z M 81.625 144"/></clipPath><clipPath id="b"><path d="M 215 144 L 293.125 144 L 293.125 220 L 215 220 Z M 215 144"/></clipPath><clipPath id="c"><path d="M 183 168 L 245 168 L 245 293.125 L 183 293.125 Z M 183 168"/></clipPath><clipPath id="d"><path d="M 130 168 L 188 168 L 188 293.125 L 130 293.125 Z M 130 168"/></clipPath></defs><path fill="#FFF" d="M 187.519531 21.394531 C 95.769531 21.394531 21.394531 95.769531 21.394531 187.519531 C 21.394531 279.265625 95.769531 353.644531 187.519531 353.644531 C 279.265625 353.644531 353.644531 279.265625 353.644531 187.519531 C 353.644531 95.769531 279.265625 21.394531 187.519531 21.394531"/><path fill="#B66736" d="M 187.359375 361.335938 C 140.910156 361.335938 97.175781 343.257812 64.355469 310.367188 C 31.464844 277.546875 13.386719 233.808594 13.386719 187.359375 C 13.386719 140.910156 31.464844 97.175781 64.355469 64.355469 C 97.175781 31.464844 140.910156 13.386719 187.359375 13.386719 C 233.808594 13.386719 277.546875 31.464844 310.367188 64.355469 C 343.257812 97.246094 361.335938 140.910156 361.335938 187.359375 C 361.335938 233.808594 343.257812 277.546875 310.367188 310.367188 C 277.546875 343.257812 233.808594 361.335938 187.359375 361.335938 Z M 187.359375 23.816406 C 143.695312 23.816406 102.597656 40.851562 71.726562 71.726562 C 40.851562 102.597656 23.816406 143.695312 23.816406 187.359375 C 23.816406 231.027344 40.851562 272.121094 71.726562 302.996094 C 102.597656 333.871094 143.695312 350.90625 187.359375 350.90625 C 231.027344 350.90625 272.121094 333.871094 302.996094 302.996094 C 333.871094 272.121094 350.90625 231.027344 350.90625 187.359375 C 350.90625 143.695312 333.871094 102.597656 302.996094 71.726562 C 272.121094 40.851562 231.027344 23.816406 187.359375 23.816406 Z M 187.359375 23.816406"/><g fill="#31373E"><g><g><path d="M 21.96875 -13.625 L 16.5 -10.234375 L 11.328125 -18.578125 L 2.4375 -13.0625 L 7.609375 -4.71875 L 2.15625 -1.328125 L -11.15625 -22.796875 L -5.703125 -26.1875 L -0.234375 -17.359375 L 8.65625 -22.875 L 3.1875 -31.703125 L 8.65625 -35.09375 Z M 21.96875 -13.625" transform="translate(111.882 92.147)"/></g></g></g><g fill="#31373E"><g><g><path d="M 15.96875 -31.96875 L 20.609375 -18.0625 C 21.671875 -14.894531 21.53125 -12.054688 20.1875 -9.546875 C 18.84375 -7.035156 16.492188 -5.21875 13.140625 -4.09375 C 9.753906 -2.957031 6.753906 -2.984375 4.140625 -4.171875 C 1.523438 -5.367188 -0.3125 -7.550781 -1.375 -10.71875 L -6.015625 -24.625 L 0.078125 -26.671875 L 4.71875 -12.765625 C 5.25 -11.160156 6.132812 -10.039062 7.375 -9.40625 C 8.613281 -8.769531 9.976562 -8.695312 11.46875 -9.1875 C 12.925781 -9.675781 13.9375 -10.535156 14.5 -11.765625 C 15.070312 -12.992188 15.085938 -14.421875 14.546875 -16.046875 L 9.90625 -29.953125 Z M 15.96875 -31.96875" transform="translate(136.25 77.14)"/></g></g></g><g fill="#31373E"><g><g><path d="M 20.078125 -22.4375 L 6.796875 -21.046875 L 7.3125 -16.0625 L 19.296875 -17.3125 L 19.828125 -12.265625 L 7.84375 -11.015625 L 8.375 -5.953125 L 22.046875 -7.390625 L 22.578125 -2.375 L 2.515625 -0.265625 L -0.125 -25.390625 L 19.546875 -27.453125 Z M 20.078125 -22.4375" transform="translate(162.681 68.533)"/></g></g></g><g fill="#31373E"><g><g><path d="M 30.015625 4.03125 L 24.390625 3.28125 L 26.546875 -13.015625 L 18.6875 -0.046875 L 14.546875 -0.609375 L 10.375 -15.1875 L 8.1875 1.09375 L 2.515625 0.34375 L 5.875 -24.734375 L 12.84375 -23.8125 L 17.640625 -7.96875 L 26.4375 -21.984375 L 33.375 -21.046875 Z M 30.015625 4.03125" transform="translate(187.072 65.489)"/></g></g></g><g fill="#31373E"><g><g><path d="M 32.875 -14 L 27.40625 -0.40625 C 26.15625 2.695312 24.203125 4.769531 21.546875 5.8125 C 18.898438 6.863281 15.929688 6.726562 12.640625 5.40625 C 9.335938 4.070312 7.078125 2.101562 5.859375 -0.5 C 4.640625 -3.101562 4.65625 -5.957031 5.90625 -9.0625 L 11.375 -22.65625 L 17.34375 -20.25 L 11.875 -6.65625 C 11.238281 -5.09375 11.1875 -3.664062 11.71875 -2.375 C 12.25 -1.09375 13.238281 -0.160156 14.6875 0.421875 C 16.113281 1.003906 17.441406 1.007812 18.671875 0.4375 C 19.898438 -0.132812 20.835938 -1.210938 21.484375 -2.796875 L 26.953125 -16.390625 Z M 32.875 -14" transform="translate(219.579 70.198)"/></g></g></g><g fill="#31373E"><g><g><path d="M 10.4375 0.46875 L 19.359375 6.390625 L 16.390625 10.875 L 2.109375 1.40625 L 16.0625 -19.65625 L 21.421875 -16.109375 Z M 10.4375 0.46875" transform="translate(245.377 81.045)"/></g></g></g><g fill="#31373E"><g><g><path d="M 12.671875 -15.984375 L 20.203125 -11.46875 C 22.003906 -10.394531 23.191406 -9.160156 23.765625 -7.765625 C 24.335938 -6.378906 24.21875 -5.003906 23.40625 -3.640625 C 22.820312 -2.671875 22.054688 -2.003906 21.109375 -1.640625 C 20.160156 -1.285156 19.144531 -1.273438 18.0625 -1.609375 C 19.09375 -0.710938 19.707031 0.316406 19.90625 1.484375 C 20.101562 2.660156 19.847656 3.832031 19.140625 5 C 18.253906 6.5 17 7.332031 15.375 7.5 C 13.75 7.664062 11.953125 7.160156 9.984375 5.984375 L 2.28125 1.359375 Z M 14.03125 -11.640625 L 11.28125 -7.046875 L 15.75 -4.375 C 16.664062 -3.820312 17.507812 -3.59375 18.28125 -3.6875 C 19.0625 -3.78125 19.664062 -4.191406 20.09375 -4.921875 C 20.53125 -5.648438 20.609375 -6.363281 20.328125 -7.0625 C 20.046875 -7.769531 19.4375 -8.40625 18.5 -8.96875 Z M 9.734375 -4.46875 L 6.765625 0.515625 L 11.234375 3.1875 C 12.378906 3.882812 13.398438 4.203125 14.296875 4.140625 C 15.191406 4.078125 15.882812 3.640625 16.375 2.828125 C 16.820312 2.066406 16.851562 1.273438 16.46875 0.453125 C 16.09375 -0.359375 15.335938 -1.109375 14.203125 -1.796875 Z M 9.734375 -4.46875" transform="translate(104.04 307.102)"/></g></g></g><g fill="#31373E"><g><g><path d="M 14.4375 5.59375 L 13.203125 -1.46875 C 13.015625 -1.507812 12.722656 -1.609375 12.328125 -1.765625 L 7.859375 -3.5 L 5.65625 2.1875 L 2.484375 0.953125 L 9.796875 -17.90625 L 17.4375 -14.9375 C 19.832031 -14.007812 21.476562 -12.722656 22.375 -11.078125 C 23.269531 -9.441406 23.320312 -7.597656 22.53125 -5.546875 C 21.945312 -4.046875 21.113281 -2.898438 20.03125 -2.109375 C 18.945312 -1.328125 17.6875 -0.9375 16.25 -0.9375 L 18.03125 6.984375 Z M 8.96875 -6.34375 L 13.4375 -4.609375 C 16.488281 -3.421875 18.503906 -4.09375 19.484375 -6.625 C 20.429688 -9.070312 19.378906 -10.890625 16.328125 -12.078125 L 11.859375 -13.8125 Z M 8.96875 -6.34375" transform="translate(125.197 319.39)"/></g></g></g><g fill="#31373E"><g><g><path d="M 7.265625 -16.296875 C 9.648438 -17.828125 12.328125 -18.304688 15.296875 -17.734375 C 18.273438 -17.171875 20.585938 -15.738281 22.234375 -13.4375 C 23.890625 -11.132812 24.441406 -8.5625 23.890625 -5.71875 C 23.347656 -2.882812 21.882812 -0.691406 19.5 0.859375 C 17.113281 2.410156 14.429688 2.898438 11.453125 2.328125 C 8.484375 1.765625 6.171875 0.320312 4.515625 -2 C 2.867188 -4.320312 2.316406 -6.898438 2.859375 -9.734375 C 3.410156 -12.578125 4.878906 -14.765625 7.265625 -16.296875 Z M 14.75 -14.71875 C 12.78125 -15.09375 10.96875 -14.738281 9.3125 -13.65625 C 7.664062 -12.570312 6.648438 -11.046875 6.265625 -9.078125 C 5.890625 -7.117188 6.273438 -5.320312 7.421875 -3.6875 C 8.566406 -2.050781 10.113281 -1.046875 12.0625 -0.671875 C 14.007812 -0.296875 15.800781 -0.660156 17.4375 -1.765625 C 19.070312 -2.878906 20.078125 -4.414062 20.453125 -6.375 C 20.835938 -8.34375 20.46875 -10.128906 19.34375 -11.734375 C 18.226562 -13.347656 16.695312 -14.34375 14.75 -14.71875 Z M 14.75 -14.71875" transform="translate(148.694 328.208)"/></g></g></g><g fill="#31373E"><g><g><path d="M 23.4375 -0.59375 L 19.953125 -0.515625 L 14.75 -16.15625 L 10.3125 -0.265625 L 6.78125 -0.171875 L -0.421875 -20.21875 L 3.234375 -20.3125 L 8.5625 -4 L 13.03125 -20.53125 L 16.375 -20.65625 L 21.703125 -4.34375 L 26.15625 -20.90625 L 29.671875 -20.984375 Z M 23.4375 -0.59375" transform="translate(176.26 333.327)"/></g></g></g><g fill="#31373E"><g><g><path d="M 4.640625 -21.90625 C 7.191406 -22.46875 9.644531 -22.304688 12 -21.421875 L 11.265625 -18.171875 C 8.992188 -18.953125 6.929688 -19.132812 5.078125 -18.71875 C 4.078125 -18.5 3.332031 -18.140625 2.84375 -17.640625 C 2.351562 -17.148438 2.179688 -16.578125 2.328125 -15.921875 C 2.472656 -15.265625 2.859375 -14.769531 3.484375 -14.4375 C 4.117188 -14.101562 4.851562 -13.914062 5.6875 -13.875 C 6.519531 -13.832031 7.4375 -13.742188 8.4375 -13.609375 C 9.4375 -13.484375 10.367188 -13.328125 11.234375 -13.140625 C 12.109375 -12.953125 12.882812 -12.523438 13.5625 -11.859375 C 14.25 -11.203125 14.71875 -10.316406 14.96875 -9.203125 C 15.351562 -7.472656 14.972656 -5.9375 13.828125 -4.59375 C 12.691406 -3.257812 11.023438 -2.347656 8.828125 -1.859375 C 7.328125 -1.523438 5.804688 -1.476562 4.265625 -1.71875 C 2.734375 -1.96875 1.332031 -2.453125 0.0625 -3.171875 L 0.859375 -6.375 C 2.046875 -5.675781 3.296875 -5.210938 4.609375 -4.984375 C 5.921875 -4.753906 7.109375 -4.753906 8.171875 -4.984375 C 9.335938 -5.253906 10.195312 -5.671875 10.75 -6.234375 C 11.300781 -6.796875 11.492188 -7.453125 11.328125 -8.203125 C 11.171875 -8.878906 10.78125 -9.390625 10.15625 -9.734375 C 9.53125 -10.085938 8.796875 -10.28125 7.953125 -10.3125 C 7.117188 -10.351562 6.207031 -10.425781 5.21875 -10.53125 C 4.238281 -10.632812 3.3125 -10.773438 2.4375 -10.953125 C 1.570312 -11.128906 0.789062 -11.539062 0.09375 -12.1875 C -0.601562 -12.832031 -1.070312 -13.695312 -1.3125 -14.78125 C -1.6875 -16.457031 -1.328125 -17.941406 -0.234375 -19.234375 C 0.859375 -20.535156 2.484375 -21.425781 4.640625 -21.90625 Z M 4.640625 -21.90625" transform="translate(210.448 331.451)"/></g></g></g><g fill="#31373E"><g><g><path d="M 9.671875 -22.203125 L -0.609375 -18.171875 L 1.375 -13.078125 L 10.578125 -16.6875 L 11.6875 -13.859375 L 2.484375 -10.25 L 4.53125 -5.046875 L 15.125 -9.203125 L 16.234375 -6.359375 L 2.46875 -0.96875 L -4.90625 -19.796875 L 8.546875 -25.0625 Z M 9.671875 -22.203125" transform="translate(231.716 326.43)"/></g></g></g><g fill="#31373E"><g><g><path d="M 13.296875 -7.921875 L 6.984375 -11.296875 C 6.828125 -11.179688 6.566406 -11.015625 6.203125 -10.796875 L 2.078125 -8.34375 L 5.203125 -3.109375 L 2.28125 -1.359375 L -8.078125 -18.71875 L -1.03125 -22.921875 C 1.175781 -24.234375 3.203125 -24.738281 5.046875 -24.4375 C 6.890625 -24.144531 8.375 -23.054688 9.5 -21.171875 C 10.320312 -19.785156 10.707031 -18.425781 10.65625 -17.09375 C 10.613281 -15.757812 10.148438 -14.519531 9.265625 -13.375 L 16.609375 -9.90625 Z M 0.515625 -10.96875 L 4.640625 -13.421875 C 7.453125 -15.097656 8.164062 -17.101562 6.78125 -19.4375 C 5.4375 -21.6875 3.359375 -21.972656 0.546875 -20.296875 L -3.578125 -17.84375 Z M 0.515625 -10.96875" transform="translate(253.005 317.82)"/></g></g></g><path fill="#B66736" d="M 54.703125 200.359375 C 50.351562 200.359375 46.828125 203.882812 46.828125 208.234375 C 46.828125 212.582031 50.351562 216.109375 54.703125 216.109375 C 59.050781 216.109375 62.578125 212.582031 62.578125 208.234375 C 62.578125 203.882812 59.050781 200.359375 54.703125 200.359375"/><path fill="#B66736" d="M 320.484375 200.359375 C 316.132812 200.359375 312.609375 203.882812 312.609375 208.234375 C 312.609375 212.582031 316.132812 216.109375 320.484375 216.109375 C 324.832031 216.109375 328.359375 212.582031 328.359375 208.234375 C 328.359375 203.882812 324.832031 200.359375 320.484375 200.359375"/><path fill="#EDD7B0" d="M 170.523438 169.503906 L 155.378906 93.367188 C 153.960938 86.242188 147.035156 81.617188 139.910156 83.03125 C 132.785156 84.449219 128.160156 91.375 129.578125 98.5 L 145.4375 178.230469 L 164.316406 183.449219 Z M 170.523438 169.503906"/><path fill="#E1BB78" d="M 204.226562 169.503906 L 219.371094 93.367188 C 220.789062 86.242188 227.710938 81.617188 234.835938 83.03125 C 241.960938 84.449219 246.589844 91.375 245.171875 98.5 L 229.3125 178.230469 L 210.429688 183.449219 Z M 204.226562 169.503906"/><g clip-path="url(#a)"><path fill="#9B5E34" d="M 136.441406 219.328125 C 113.90625 218.039062 97.253906 205.839844 88.285156 184.050781 C 81.78125 168.25 81.707031 152.984375 81.707031 152.339844 L 81.707031 147.527344 L 86.375 146.339844 C 86.929688 146.199219 100.117188 142.929688 115.378906 145.875 C 129.871094 148.671875 148.949219 157.660156 157.527344 184.605469 L 157.765625 185.355469 L 159.261719 211.859375 L 137.675781 219.398438 Z M 136.441406 219.328125"/></g><path fill="#EDD7B0" d="M 145.492188 187.632812 C 140.050781 171.222656 129.261719 161.292969 113.417969 158.109375 C 105.929688 156.605469 98.910156 156.960938 94.417969 157.503906 C 94.9375 162.636719 96.277344 170.9375 99.738281 179.339844 C 106.703125 196.265625 118.882812 205.527344 135.949219 206.882812 L 146.371094 203.242188 Z M 145.492188 187.632812"/><g clip-path="url(#b)"><path fill="#5B362A" d="M 237.074219 219.398438 L 215.488281 211.859375 L 216.984375 185.355469 L 217.222656 184.605469 C 225.796875 157.660156 244.875 148.671875 259.371094 145.875 C 274.632812 142.929688 287.820312 146.199219 288.375 146.339844 L 293.042969 147.527344 L 293.042969 152.339844 C 293.042969 152.984375 292.96875 168.25 286.464844 184.050781 C 277.496094 205.839844 260.84375 218.039062 238.304688 219.328125 Z M 237.074219 219.398438"/></g><path fill="#E1BB78" d="M 228.378906 203.242188 L 238.796875 206.882812 C 255.867188 205.527344 268.046875 196.265625 275.011719 179.339844 C 278.46875 170.9375 279.8125 162.636719 280.332031 157.503906 C 275.839844 156.960938 268.816406 156.605469 261.332031 158.109375 C 245.488281 161.292969 234.699219 171.222656 229.257812 187.632812 Z M 228.378906 203.242188"/><g clip-path="url(#c)"><path fill="#9B5E34" d="M 222.8125 174.792969 C 239.914062 181.589844 248.453125 200.804688 242.039062 218.054688 L 237.925781 229.121094 L 231.640625 234.921875 L 233.601562 240.742188 L 223.441406 268.058594 C 217.839844 283.128906 203.453125 293.125 187.375 293.125 L 183.246094 228.1875 L 187.375 168.011719 C 199.402344 168.011719 211.433594 170.273438 222.8125 174.792969 Z M 222.8125 174.792969"/></g><path fill="#2D2D2D" d="M 220.273438 221.566406 L 237.925781 229.121094 L 233.601562 240.742188 L 215.402344 232.949219 Z M 220.273438 221.566406"/><g clip-path="url(#d)"><path fill="#C9885B" d="M 151.9375 174.792969 C 134.835938 181.589844 126.292969 200.804688 132.707031 218.054688 L 136.824219 229.121094 L 143.109375 234.921875 L 141.144531 240.742188 L 151.304688 268.058594 C 156.910156 283.128906 171.292969 293.125 187.375 293.125 L 187.375 168.011719 C 175.34375 168.011719 163.316406 170.273438 151.9375 174.792969 Z M 151.9375 174.792969"/></g><path fill="#4B5055" d="M 154.476562 221.566406 L 136.824219 229.121094 L 141.148438 240.742188 L 159.347656 232.949219 Z M 154.476562 221.566406"/><path fill="#2D2D2D" d="M 201.183594 255.417969 L 187.375 263.722656 L 183.246094 269.652344 L 187.375 278.171875 L 207.566406 266.03125 Z M 201.183594 255.417969"/><path fill="#4B5055" d="M 173.566406 255.417969 L 167.183594 266.03125 L 187.375 278.171875 L 187.375 263.722656 Z M 173.566406 255.417969"/></svg>